<svg id="레이어_1" data-name="레이어 1" xmlns="http://www.w3.org/2000/svg" viewBox="0 0 30 30"><defs><style>.cls-1{fill:none;stroke:#c6eab2;stroke-linecap:round;stroke-miterlimit:10;}.cls-2{fill:#c6eab2;}.cls-3{fill:#afa87e;}.cls-4{fill:#a9d38d;}</style></defs><line class="cls-1" x1="14.7" y1="16.48" x2="14.7" y2="7.65"/><path class="cls-2" d="M14.81,7.31c4-2.79,0-7.31,0-7.31S10.84,4.52,14.81,7.31Z"/><path class="cls-2" d="M15.45,12.05c4.78.83,5.17-5.18,5.17-5.18S14.62,7.26,15.45,12.05Z"/><path class="cls-2" d="M14.17,14.63C9.39,15.46,9,9.45,9,9.45S15,9.84,14.17,14.63Z"/><path class="cls-3" d="M6.18,19.26,8.36,29.47A.67.67,0,0,0,9,30H21a.67.67,0,0,0,.66-.53l2.18-10.21"/><rect class="cls-4" x="4.76" y="15.7" width="20.47" height="3.56" rx="1"/></svg>