<svg id="레이어_1" data-name="레이어 1" xmlns="http://www.w3.org/2000/svg" viewBox="0 0 30 30"><defs><style>.cls-1{fill:#afa87e;}.cls-2{fill:#fff;}</style></defs><path class="cls-1" d="M17,23.39a14.44,14.44,0,0,0,1.54-4.76c.27-2.45,1.14-4.82,4.23-6a5.77,5.77,0,0,1,6.87,3.5c.87,2.84.49,5.63-2.76,7.26a27.58,27.58,0,0,0-4.67,2.73,17.49,17.49,0,0,1-1.89,1.3,3.33,3.33,0,0,1-3.1.11C16.08,26.8,16.31,24.91,17,23.39Z"/><path class="cls-1" d="M7.1,7.28a8.59,8.59,0,0,0,1.61,3A11.36,11.36,0,0,1,11,15a2.7,2.7,0,0,0,2.76,2.55c.93,0,2.4-.41,2.4-3.52A16.42,16.42,0,0,1,17.28,8a11.82,11.82,0,0,0,.17-4.46C16.79,1.1,14.82-.71,11.23.27,6.41,1.59,6.45,5,7.1,7.28Z"/><ellipse class="cls-2" cx="14.5" cy="3.91" rx="1.37" ry="2.07" transform="translate(0.22 8.55) rotate(-33.11)"/><ellipse class="cls-2" cx="23.78" cy="16.13" rx="2.38" ry="1.48" transform="translate(-4.95 15.61) rotate(-33.11)"/><path class="cls-1" d="M.19,25.94a8.4,8.4,0,0,1,.23-4.39A11,11,0,0,0,1,17.65c-.19-2.56-.32-4.29,1.69-4.84s2.92.59,3.56,2.74c.45,1.51,1.83,3,2.82,4.2a18.44,18.44,0,0,1,1.41,2c.41.74,1.59,4.13-.62,6.54s-6.49,2-7.63.87A5.62,5.62,0,0,1,.19,25.94Z"/><ellipse class="cls-2" cx="4.02" cy="25.75" rx="1.67" ry="2.36" transform="translate(-13.41 6.38) rotate(-33.11)"/></svg>