<svg id="레이어_1" data-name="레이어 1" xmlns="http://www.w3.org/2000/svg" viewBox="0 0 30 30"><defs><style>.cls-1{fill:#98d8ba;}.cls-2{fill:#a6e0c6;}.cls-3{fill:none;stroke:#afa87e;stroke-linecap:round;stroke-miterlimit:10;}</style></defs><path class="cls-1" d="M19.38,23.29a5.26,5.26,0,1,0,8.51-5.81,3.81,3.81,0,0,0,.05-.59,3.72,3.72,0,0,0-3.72-3.71Z"/><path class="cls-1" d="M10.62,23.29a5.26,5.26,0,1,1-8.51-5.81,3.81,3.81,0,0,1,0-.59,3.72,3.72,0,0,1,3.72-3.71Z"/><path class="cls-2" d="M21.71,7.83a7.47,7.47,0,0,0,.09-1.07,6.76,6.76,0,0,0-13.52,0,6.26,6.26,0,0,0,.09,1.07,9.56,9.56,0,1,0,13.34,0Z"/><line class="cls-3" x1="24.14" y1="24.24" x2="24.14" y2="29.46"/><line class="cls-3" x1="5.54" y1="24.24" x2="5.54" y2="29.46"/><line class="cls-3" x1="14.88" y1="12.53" x2="14.88" y2="29.46"/><polyline class="cls-3" points="19.45 17.8 14.98 21.06 10.51 17.8"/><line class="cls-3" x1="14.98" y1="15.69" x2="17.65" y2="13.97"/></svg>