<svg width="20" height="20" viewBox="0 0 20 20" fill="none" xmlns="http://www.w3.org/2000/svg">
<path d="M17.731 14.793C15.7075 14.4805 15.5552 14.336 15.5552 14.336C16.1646 11.4454 14.6802 8.43363 12.5747 6.69535C9.77004 4.38285 5.50832 6.06254 2.18801 2.54692C1.41457 1.7266 1.86379 11.7461 6.02004 15.543C9.0591 18.3164 12.6372 17.4649 13.6177 17.0118C14.5083 16.5977 15.1294 15.6875 15.1294 15.6875C16.7505 16.1954 17.5513 16.2422 17.5513 16.2422C18.1216 16.3125 18.4107 14.8985 17.731 14.793V14.793ZM14.145 15.0821C11.1099 14.1719 8.46926 11.918 6.75832 10.1524C6.61769 10.0079 6.82082 9.79301 6.97316 9.91801C8.65676 11.3047 11.2271 13.043 14.5239 14.1329C14.5318 14.4493 14.3482 14.9024 14.145 15.0821Z" fill="#76B79C"/>
</svg>
