<svg width="20" height="20" viewBox="0 0 20 20" fill="none" xmlns="http://www.w3.org/2000/svg">
<path d="M17.5314 15.7386C17.5635 15.6907 17.5993 15.6073 17.6165 15.5028C17.633 15.4014 17.625 15.3239 17.6129 15.2807C16.6208 15.1266 16.0693 15.0115 15.7592 14.9314C15.6024 14.8909 15.4975 14.8568 15.4243 14.8274C15.3873 14.8126 15.3527 14.7967 15.3207 14.7787C15.3044 14.7695 15.287 14.7588 15.2693 14.7463C15.2603 14.74 15.251 14.733 15.2413 14.7252C15.2365 14.7213 15.2315 14.7171 15.2265 14.7128L15.2189 14.7059L15.215 14.7024L15.213 14.7006C15.212 14.6996 15.2111 14.6987 15.5552 14.336L15.2111 14.6987L15.0083 14.5063L15.0659 14.2328C15.6277 11.5681 14.2567 8.73249 12.2566 7.08113L17.5314 15.7386ZM17.5314 15.7386C17.5132 15.7367 17.4899 15.7342 17.4618 15.7307C17.3718 15.7197 17.2313 15.6995 17.04 15.6638C16.6574 15.5924 16.0712 15.4586 15.2789 15.2104L14.9253 15.0996L14.717 15.4049L14.7168 15.4051L14.7167 15.4053L14.7166 15.4054L14.7165 15.4055L14.7164 15.4057L14.7134 15.4099L14.6969 15.433C14.6814 15.4542 14.6573 15.4865 14.6253 15.5273C14.5611 15.609 14.4661 15.7232 14.3459 15.8491C14.1006 16.1061 13.7729 16.3881 13.4074 16.5581C12.5323 16.9623 9.19338 17.7619 6.35727 15.1739C4.40668 13.3919 3.27849 10.0795 2.74696 7.22208C2.48388 5.80782 2.37436 4.54505 2.37599 3.69852C2.37618 3.60079 2.37787 3.5106 2.38078 3.42793M17.5314 15.7386L2.38078 3.42793M2.38078 3.42793C4.01764 4.86838 5.82543 5.28454 7.49163 5.56535C7.71088 5.6023 7.92608 5.63694 8.1372 5.67091C9.7531 5.93096 11.1303 6.15261 12.2564 7.08093L2.38078 3.42793ZM14.0014 15.561L14.2679 15.6409L14.4763 15.4566C14.6604 15.2937 14.7934 15.0548 14.8777 14.8449C14.9642 14.6292 15.0299 14.3674 15.0238 14.1205L15.0151 13.7686L14.6809 13.6581C11.4591 12.5931 8.94243 10.8923 7.29105 9.53207L7.29032 9.53147C6.97016 9.26877 6.58458 9.38421 6.38982 9.59353C6.29266 9.69796 6.21893 9.8445 6.2116 10.0158C6.20383 10.1974 6.2727 10.3699 6.39925 10.5003C8.12828 12.2846 10.8419 14.6136 14.0014 15.561Z" stroke="#8F8F8F"/>
</svg>
