<svg xmlns="http://www.w3.org/2000/svg" viewBox="0 0 464.51 206"><defs><style>.cls-1{fill:#76b79c;}</style></defs><g id="레이어_2" data-name="레이어 2"><g id="레이어_1-2" data-name="레이어 1"><path class="cls-1" d="M225.36,97a26.58,26.58,0,0,1,2.11-10.53,28,28,0,0,1,14.6-14.74,27.11,27.11,0,0,1,21.16,0,28,28,0,0,1,8.78,6,28.36,28.36,0,0,1,6,8.78,27.21,27.21,0,0,1,0,21.2,27.61,27.61,0,0,1-14.68,14.56,26.73,26.73,0,0,1-10.59,2.11A27,27,0,0,1,225.36,97Zm7.41,0a20.63,20.63,0,0,0,1.52,8,19.93,19.93,0,0,0,4.3,6.49A20.45,20.45,0,0,0,245,115.9a20,20,0,0,0,15.64,0,20.19,20.19,0,0,0,6.3-4.37,20.89,20.89,0,0,0,4.26-6.49,20.21,20.21,0,0,0,1.55-7.93,20.41,20.41,0,0,0-1.55-8,21.69,21.69,0,0,0-4.26-6.56,19.43,19.43,0,0,0-14.19-6,19.2,19.2,0,0,0-7.9,1.63,20,20,0,0,0-10.56,11A21.24,21.24,0,0,0,232.77,97Z"/><path class="cls-1" d="M298.65,104.82a12.18,12.18,0,0,0,1.74,6.48,12.5,12.5,0,0,0,4.67,4.49,13.19,13.19,0,0,0,6.49,1.63,13.8,13.8,0,0,0,6.74-1.63,11.83,11.83,0,0,0,4.63-4.49,12.51,12.51,0,0,0,1.67-6.48V70.21h7.12V105A19.26,19.26,0,0,1,329,115.27a18,18,0,0,1-7.26,6.74,22,22,0,0,1-10.23,2.37A21.78,21.78,0,0,1,301.4,122a18,18,0,0,1-7.27-6.74A19.26,19.26,0,0,1,291.46,105V70.21h7.19Z"/><path class="cls-1" d="M360.61,70.21a25.35,25.35,0,0,1,7.52,1.07,17.44,17.44,0,0,1,6,3.19,14.74,14.74,0,0,1,4,5.23,16.72,16.72,0,0,1,1.44,7.11,21.18,21.18,0,0,1-.93,6.23,14.89,14.89,0,0,1-8.59,9.52,21.29,21.29,0,0,1-8.56,1.52h-7.93v19.71h-7.19V70.21Zm.74,26.9a12.85,12.85,0,0,0,5.3-1,8.6,8.6,0,0,0,3.3-2.48,10.05,10.05,0,0,0,1.7-3.23,11.26,11.26,0,0,0,.52-3.33,10.78,10.78,0,0,0-.56-3.34,10.06,10.06,0,0,0-1.78-3.22,9.15,9.15,0,0,0-3.18-2.48,10.66,10.66,0,0,0-4.78-1h-8.3v20Zm8.82,4.15,14,22.53h-8.3l-14.31-22.31Z"/><path class="cls-1" d="M243,142.21a23.37,23.37,0,0,1,10,2,14.65,14.65,0,0,1,6.41,5.67,16.88,16.88,0,0,1,2.26,9,20.86,20.86,0,0,1-1,6.26,15.69,15.69,0,0,1-3.08,5.56,15.12,15.12,0,0,1-5.52,4,20.21,20.21,0,0,1-8.3,1.52h-7.93v19.64h-7.19V142.21Zm.74,26.9a12.06,12.06,0,0,0,5.26-1,8.51,8.51,0,0,0,3.26-2.63,11.19,11.19,0,0,0,1.7-3.33,10.87,10.87,0,0,0,.52-3.19,11.62,11.62,0,0,0-.52-3.37,8.61,8.61,0,0,0-1.74-3.19A9.27,9.27,0,0,0,249,150a11.32,11.32,0,0,0-4.86-.93h-8.3v20Z"/><path class="cls-1" d="M272.79,142.21H280V188.9h27.2v6.89H272.79Z"/><path class="cls-1" d="M313.55,195.79,336.89,140h.45l23.42,55.8h-8.23L335,151.25l5.11-3.33-19.49,47.87Zm13.71-20.3h19.93l2.38,6.22H325.18Z"/><path class="cls-1" d="M417.23,197.5l-41.43-42,2.08.51.14,39.8h-7.19V140.58h.38l40.9,42.17-1.63-.37-.15-40.17h7.19V197.5Z"/><path class="cls-1" d="M428.86,142.21h35.65v6.89H450.13v46.69h-7.19V149.1H428.86Z"/><path class="cls-1" d="M191,206H0V60.61L95.49,0,191,60.61ZM8,198H183V65L95.49,9.48,8,65Z"/><path class="cls-1" d="M94.49,206a4,4,0,0,1-4-4V155.78a74.69,74.69,0,0,1,8.33-31.3c7.61-14.4,23.78-31.57,57.58-31.57h3.79l.21,3.79a64,64,0,0,1-5.13,25.69C150,135,138.22,151.75,112,160.26a4,4,0,0,1-2.46-7.61c36.78-11.92,42.12-41,42.83-51.64-52.75,2.45-53.82,52.61-53.84,54.8V202A4,4,0,0,1,94.49,206Z"/><path class="cls-1" d="M82.73,161.34a4.07,4.07,0,0,1-.84-.09C81.55,161.18,47,153.43,47,118.7V115l3.66-.31a48.86,48.86,0,0,1,21.13,3.77c10.09,4.26,22.88,14.08,26.61,36.65a4,4,0,0,1-7.89,1.3c-4.81-29.09-26.38-33.29-35.32-33.76,2.42,24.81,27.23,30.52,28.34,30.76a4,4,0,0,1-.84,7.91Z"/></g></g></svg>