<svg width="20" height="20" viewBox="0 0 20 20" fill="none" xmlns="http://www.w3.org/2000/svg">
<path d="M6.83275 14.5881L6.75186 14.9894C6.6043 15.7216 6.26733 16.3589 5.909 16.8682C6.22552 16.7956 6.56727 16.6916 6.87681 16.5497L6.83275 14.5881ZM6.83275 14.5881L6.45525 14.4296M6.83275 14.5881L6.45525 14.4296M6.45525 14.4296C3.98234 13.3915 2.375 11.3443 2.375 9.0625C2.375 5.80808 5.68284 3 10 3C14.3165 3 17.6255 5.80773 17.6328 9.06313C17.6324 12.3173 14.3247 15.125 10.0078 15.125C9.6495 15.125 9.29646 15.1028 8.94799 15.0654L8.69077 15.0377M6.45525 14.4296L8.69077 15.0377M8.69077 15.0377L8.51961 15.2317M8.69077 15.0377L8.51961 15.2317M8.51961 15.2317C8.28824 15.4939 7.6132 16.2106 6.87685 16.5497L8.51961 15.2317Z" stroke="#8F8F8F"/>
</svg>
