<svg width="20" height="20" viewBox="0 0 20 20" fill="none" xmlns="http://www.w3.org/2000/svg">
<path d="M10.3398 16.9284C10.2081 17.031 10.0938 17.1184 10 17.1895C9.90617 17.1184 9.79186 17.031 9.66018 16.9284C9.26289 16.6189 8.70826 16.1726 8.08105 15.6271C6.82223 14.5323 5.28958 13.0537 4.14575 11.49L3.74612 11.7823L4.14575 11.49C2.96683 9.87828 2.375 7.92915 2.375 6.60156C2.375 4.45191 4.10876 2.70954 6.25249 2.6875H6.28906C7.65982 2.6875 8.87815 3.41295 9.58109 4.49172L10 5.1346L10.4189 4.49172C11.1219 3.41295 12.3402 2.6875 13.7109 2.6875H13.7475C15.8912 2.70954 17.625 4.45191 17.625 6.60156C17.625 7.92915 17.0332 9.87828 15.8543 11.49L16.2578 11.7852L15.8543 11.49C14.7104 13.0537 13.1778 14.5323 11.9189 15.6271C11.2917 16.1726 10.7371 16.6189 10.3398 16.9284Z" stroke="#76B79C"/>
</svg>
