<svg width="13" height="13" viewBox="0 0 13 13" fill="none" xmlns="http://www.w3.org/2000/svg">
<path d="M11.5077 10.8987L8.72648 8.09211C9.27074 7.40999 9.59886 6.54563 9.59886 5.60577C9.59886 3.40583 7.81503 1.62244 5.61193 1.62244C3.40883 1.62244 1.625 3.40843 1.625 5.60838C1.625 7.80833 3.40883 9.59172 5.61193 9.59172C6.56504 9.59172 7.43743 9.25847 8.12492 8.70132L10.8879 11.4897C10.9712 11.5782 11.0858 11.6224 11.1978 11.6224C11.3046 11.6224 11.4113 11.5834 11.4921 11.5053C11.6639 11.3413 11.6691 11.0705 11.5077 10.8987ZM5.61193 8.73517C4.776 8.73517 3.98955 8.40973 3.39842 7.81874C2.80728 7.22775 2.48176 6.44149 2.48176 5.60838C2.48176 4.77266 2.80728 3.9864 3.39842 3.39802C3.98955 2.80702 4.776 2.48159 5.61193 2.48159C6.44786 2.48159 7.23431 2.80702 7.82545 3.39802C8.41658 3.98901 8.7421 4.77526 8.7421 5.60838C8.7421 6.4441 8.41658 7.23035 7.82545 7.81874C7.23431 8.40973 6.44786 8.73517 5.61193 8.73517Z" fill="#8F8F8F"/>
</svg>
