<svg height="426pt" viewBox="-11 0 426 426.92567" width="426pt" xmlns="http://www.w3.org/2000/svg"><path d="m307.664062 218.710938c0 84.832031-68.769531 153.601562-153.601562 153.601562s-153.601562-68.769531-153.601562-153.601562c0-84.828126 68.769531-153.597657 153.601562-153.597657s153.601562 68.769531 153.601562 153.597657zm0 0" fill="#efefd2"/><g fill="#4c241d"><path d="m201.855469 314.285156c-.25 0-.507813-.011718-.757813-.039062-3.746094-.417969-6.445312-3.792969-6.035156-7.539063 6.601562-59.402343-22.792969-161.582031-23.085938-162.601562-1.050781-3.625 1.027344-7.414063 4.648438-8.457031 3.664062-1.082032 7.414062 1.03125 8.460938 4.644531 1.246093 4.296875 30.445312 105.84375 23.550781 167.921875-.386719 3.492187-3.347657 6.070312-6.78125 6.070312zm0 0"/><path d="m222.335938 314.285156c-.519532 0-1.046876-.058594-1.574219-.179687-3.664063-.867188-5.9375-4.539063-5.078125-8.210938 1.132812-4.8125 28.230468-118.421875 70.085937-160.273437 2.664063-2.664063 6.984375-2.664063 9.652344 0 2.664063 2.664062 2.664063 6.988281 0 9.652344-39.109375 39.113281-66.179687 152.605468-66.449219 153.753906-.738281 3.136718-3.542968 5.257812-6.636718 5.257812zm0 0"/><path d="m167.714844 314.285156c-3.773438 0-6.824219-3.050781-6.824219-6.824218 0-25.0625-19.3125-57.609376-19.507813-57.933594-1.941406-3.234375-.886718-7.421875 2.347657-9.359375 3.238281-1.941407 7.417969-.886719 9.359375 2.339843.871094 1.457032 21.453125 36.085938 21.453125 64.953126 0 3.773437-3.054688 6.824218-6.828125 6.824218zm0 0"/></g><path d="m211.484375 97.902344c-2.679687-1.917969-2.855469-5.773438-.628906-8.203125 3.265625-3.5625 6.347656-7.457031 9.167969-11.332031-3.597657-12.511719-10.355469-25.878907-22.507813-37.648438.480469 12.972656-1.199219 24.964844-2.929687 33.261719-1.316407 6.300781-7.84375 9.992187-13.945313 7.957031-5.285156-1.761719-8.296875-7.28125-7.054687-12.710938 4.582031-20.042968 4.085937-34.496093 2.390624-44.0625-7.414062-3.996093-15.929687-7.507812-25.742187-10.363281.664063 6.863281-.316406 12.664063-1.445313 16.5625-.9375 3.230469-3.902343 5.40625-7.261718 5.308594l-.832032-.023437c-4.386718-.128907-7.476562-4.039063-7.019531-8.40625.582031-5.542969-.039062-11.9375-.957031-17.53125-4.476562-.820313-9.152344-1.53125-14.070312-2.101563 2.355468 8.75 2.664062 15.542969-2.132813 15.542969-6.792969 0-11.890625-8.445313-15.304687-16.933594-9.042969-.441406-18.664063-.53125-29.070313-.132812 0 0-1.359375 6.597656-2.558594 17.105468 5.003907 4.128906 11.746094 9.070313 18.230469 11.722656 4.066406 1.664063 6.050781 6.234376 4.085938 10.160157l-.371094.746093c-1.503906 3.003907-4.828125 4.585938-8.113282 3.882813-3.992187-.851563-9.613281-2.746094-15.382812-6.632813-.28125 6.683594-.328125 13.953126 0 21.542969 7.582031 5.628907 18.84375 11.941407 35.421875 17.140625 5.3125 1.664063 8.558594 7.050782 7.414063 12.5-1.324219 6.300782-7.800782 10.074219-13.902344 8.03125-7.0625-2.363281-16.574219-6.136718-26.214844-11.738281 2.039062 11.769531 5.34375 23.535156 10.394531 34.457031 8.628907-.632812 20.429688-2 31.121094-4.984375 3.171875-.886719 6.53125 1.019531 7.027344 4.277344.804687 5.257813-2.988281 13.089844-27.777344 18.34375 6.285156 8.378906 14.144531 15.707031 23.910156 21.429687 5.089844-1.519531 10.367188-3.34375 15.324219-5.519531 3.019531-1.324219 6.613281.085938 7.5625 3.242188.816406 2.714843.429688 6.339843-3.6875 10.445312 4.800781 1.4375 9.835938 2.652344 15.320312 3.4375 6.683594.957031 13.449219-1.4375 18.226563-6.210937 4.074219-4.078125 6.367187-9.609375 6.367187-15.375v-1.605469c0-9.21875 7.472657-16.695313 16.695313-16.695313h4.027344c4.292969 0 8.488281-1.273437 12.0625-3.652343l6.695312-4.464844c5.695313-3.796875 9.277344-10.015625 9.65625-16.851563.226563-4.046874.242188-9.003906-.214843-14.511718-5.707032 3.136718-9.539063 2.339844-11.976563.59375zm0 0" fill="#a9ba5a"/><path d="m152.847656 183.714844c-1.292968 0-2.585937-.09375-3.871094-.273438-5.234374-.75-10.574218-1.941406-16.300781-3.65625-2.308593-.683594-4.082031-2.539062-4.667969-4.867187-.585937-2.332031.09375-4.804688 1.800782-6.503907.347656-.347656.921875-.953124 1.359375-1.621093-4.152344 1.707031-8.777344 3.328125-13.785157 4.820312-1.820312.546875-3.773437.300781-5.398437-.648437-10.0625-5.890625-18.78125-13.699219-25.925781-23.21875-1.402344-1.867188-1.753906-4.3125-.933594-6.5.816406-2.179688 2.691406-3.792969 4.972656-4.28125 13.867188-2.9375 19.566406-6.453125 21.546875-8.710938-10.703125 2.71875-22.082031 3.980469-29.992187 4.558594-2.835938.207031-5.503906-1.359375-6.695313-3.9375-4.960937-10.714844-8.632812-22.882812-10.925781-36.164062-.453125-2.609376.652344-5.246094 2.824219-6.765626 2.175781-1.507812 5.035156-1.625 7.328125-.292968 9.472656 5.5 18.792968 9.105468 24.945312 11.160156 1.429688.472656 2.589844.007812 3.148438-.316406.582031-.332032 1.59375-1.109375 1.914062-2.636719.417969-1.988281-.78125-3.960937-2.773437-4.589844-14.898438-4.671875-27.507813-10.785156-37.453125-18.179687-1.652344-1.226563-2.667969-3.132813-2.753906-5.191406-.3125-7.347657-.304688-14.792969.007812-22.121094.105469-2.464844 1.539062-4.6875 3.746094-5.800782 2.191406-1.109374 4.839844-.945312 6.886718.433594 5.105469 3.441406 9.886719 4.953125 12.992188 5.621094l.953125-1.011719c-.011719-.335937-.144531-.621093-.574219-.796875-5.917968-2.410156-12.652344-6.710937-19.984375-12.765625-1.78125-1.472656-2.699219-3.746093-2.433593-6.039062 1.21875-10.6875 2.59375-17.425781 2.652343-17.714844.632813-3.070313 3.289063-5.316406 6.429688-5.4375 10.085937-.390625 19.792969-.3554688 29.660156.132813 2.660156.132812 5.003906 1.800781 6 4.273437 2.03125 5.046875 3.953125 8.226563 5.53125 10.132813-.210937-1.1875-.539063-2.648438-1.019531-4.421876-.585938-2.1875-.054688-4.527343 1.425781-6.238281 1.472656-1.714843 3.660156-2.613281 5.960937-2.320312 4.824219.558593 9.707032 1.292969 14.507813 2.171875 2.839844.519531 5.046875 2.765625 5.511719 5.613281 1.21875 7.5 1.558594 14.007813 1 19.339844-.046875.449219.140625.699219.191406.761719l1.09375.136718c1.359375-3.417968 2.28125-8.320312 1.695312-14.390625-.222656-2.253906.691407-4.46875 2.433594-5.914062 1.746094-1.457031 4.097656-1.949219 6.265625-1.300781 9.875 2.867187 18.980469 6.539062 27.078125 10.914062 1.828125.984375 3.113282 2.757812 3.476563 4.8125 2.390625 13.453125 1.566406 29.1875-2.457031 46.773438-.464844 2.046874.632812 4.074218 2.566406 4.71875 1.433594.472656 2.65625.007812 3.234375-.320313.566406-.324219 1.554687-1.085937 1.867187-2.566406 1.527344-7.355469 3.261719-18.820313 2.789063-31.609375-.105469-2.785156 1.492187-5.351563 4.039062-6.484375 2.546875-1.140625 5.527344-.605469 7.527344 1.332031 11.605469 11.238281 19.785156 24.921875 24.320313 40.660156.578124 2.019532.199218 4.199219-1.042969 5.898438-2.675781 3.695312-5.351563 7.0625-7.964844 10.046875 1.058594-.285157 2.140625-.84375 2.597656-1.101563 2.042969-1.109375 4.488281-1.109375 6.515625-.027344 2.039063 1.097657 3.382813 3.140626 3.574219 5.449219.433594 5.164063.511719 10.363281.230469 15.453125-.492188 8.90625-5.230469 17.183594-12.6875 22.160156l-6.691406 4.457032c-4.714844 3.140625-10.195313 4.800781-15.855469 4.800781h-4.023438c-5.441406 0-9.867187 4.425781-9.867187 9.867187v1.605469c0 7.519531-3.046875 14.886719-8.367188 20.199219-5.40625 5.417969-12.726562 8.433594-20.15625 8.433594zm-7.832031-14.835938c1.988281.421875 3.933594.761719 5.894531 1.039063 4.484375.648437 9.121094-.957031 12.4375-4.28125 2.773438-2.773438 4.367188-6.617188 4.367188-10.546875v-1.605469c0-12.964844 10.554687-23.519531 23.519531-23.519531h4.027344c2.953125 0 5.820312-.867188 8.28125-2.507813l6.691406-4.457031c3.894531-2.601562 6.375-6.921875 6.636719-11.554688.09375-1.722656.140625-3.453124.140625-5.199218-4.402344.304687-7.609375-1.433594-9.496094-2.78125 0-.007813-.003906-.007813-.003906-.015625-2.789063-1.992188-4.59375-5.105469-4.953125-8.539063-.375-3.566406.820312-7.148437 3.265625-9.820312 2.152343-2.351563 4.386719-5.039063 6.652343-8.019532-2.152343-6.5-5.066406-12.566406-8.710937-18.144531-.621094 6.472657-1.589844 12.105469-2.488281 16.445313-1.027344 4.894531-4.097656 9.128906-8.433594 11.613281-4.359375 2.5-9.589844 3.007813-14.359375 1.425781-8.632813-2.878906-13.597656-11.785156-11.546875-20.710937 3.933594-17.214844 3.847656-29.832031 2.8125-38.082031-3.984375-1.988282-8.226562-3.800782-12.699219-5.425782-.347656 3.679688-1.03125 6.757813-1.699219 9.0625-1.8125 6.222656-7.621093 10.253906-14.019531 10.242188l-.855469-.035156c-3.90625-.105469-7.5-1.800782-10.085937-4.753907-2.652344-3.023437-3.925781-7.097656-3.507813-11.171875.207032-1.933594.25-4.121094.128907-6.546875-.300781 2.441407-1.089844 4.421875-2.355469 6.078125-1.933594 2.523438-4.824219 3.90625-8.140625 3.90625-7.8125 0-14.480469-5.75-19.851563-17.117187-6.226562-.214844-12.421874-.253907-18.769531-.121094-.320312 2.015625-.699219 4.539063-1.078125 7.5 5.066406 3.914063 9.710938 6.773437 13.578125 8.355469 3.800781 1.558594 6.789063 4.613281 8.203125 8.371094 1.378906 3.675781 1.171875 7.640624-.589844 11.15625l-.371093.75c-2.894531 5.769531-9.34375 8.828124-15.640625 7.515624-2.019532-.433593-4.539063-1.121093-7.367188-2.214843.007813 2.28125.039063 4.558593.101563 6.832031 8.3125 5.65625 18.648437 10.441406 30.765625 14.242188 8.746094 2.738281 13.925781 11.519531 12.050781 20.417968-1.03125 4.921875-4.125 9.183594-8.480469 11.675782-4.332031 2.484374-9.53125 3.011718-14.265625 1.417968-3.832031-1.277344-8.785156-3.105468-14.269531-5.566406 1.390625 5.128906 3.03125 10.007812 4.917969 14.601562 7.402343-.714843 16.613281-2.015624 24.988281-4.347656 3.492188-.964844 7.21875-.40625 10.234375 1.53125 2.898437 1.882813 4.859375 4.902344 5.371094 8.300782 1.566406 10.175781-5.898438 17.960937-22.226563 23.199218 3.820313 3.855469 8.011719 7.253906 12.546875 10.160156 4.289063-1.367187 8.195313-2.824218 11.652344-4.339843 3.3125-1.445313 7.085937-1.425781 10.347656.082031 3.140625 1.453125 5.507813 4.164062 6.492188 7.460938.554687 1.851562 1.007812 4.691406.160156 8.042968zm0 0" fill="#4c241d"/><path d="m253.652344 141.546875c2.683594 1.917969 2.859375 5.777344.632812 8.203125-3.269531 3.566406-6.351562 7.460938-9.171875 11.332031 3.601563 12.511719 10.355469 25.878907 22.507813 37.648438-.476563-12.972657 1.199218-24.964844 2.933594-33.257813 1.3125-6.300781 7.839843-9.992187 13.945312-7.957031 5.28125 1.761719 8.292969 7.28125 7.054688 12.710937-4.582032 20.042969-4.085938 34.496094-2.390626 44.0625 7.410157 3.996094 15.929688 7.507813 25.738282 10.363282-.664063-6.863282.320312-12.664063 1.449218-16.5625.9375-3.230469 3.898438-5.40625 7.257813-5.308594l.835937.023438c4.386719.128906 7.472657 4.039062 7.015626 8.40625-.582032 5.542968.039062 11.9375.957031 17.53125 4.480469.820312 9.152343 1.53125 14.074219 2.101562-2.359376-8.75-2.667969-15.542969 2.132812-15.542969 6.789062 0 11.890625 8.445313 15.304688 16.933594 9.042968.441406 18.664062.53125 29.066406.132813 0 0 1.359375-6.597657 2.558594-17.105469-5.003907-4.128907-11.746094-9.070313-18.230469-11.722657-4.0625-1.664062-6.046875-6.234374-4.085938-10.160156l.375-.746094c1.503907-3.003906 4.824219-4.585937 8.109375-3.882812 3.996094.851562 9.617188 2.746094 15.386719 6.632812.28125-6.683593.324219-13.953124 0-21.542968-7.582031-5.628906-18.84375-11.941406-35.421875-17.140625-5.3125-1.667969-8.5625-7.050781-7.414062-12.5 1.320312-6.300781 7.796874-10.074219 13.902343-8.03125 7.0625 2.363281 16.570313 6.136719 26.214844 11.738281-2.039063-11.769531-5.34375-23.535156-10.398437-34.457031-8.625.632812-20.429688 2-31.117188 4.984375-3.175781.886718-6.535156-1.019532-7.03125-4.277344-.800781-5.257812 2.988281-13.089844 27.78125-18.34375-6.285156-8.378906-14.148438-15.707031-23.910156-21.429688-5.089844 1.519532-10.367188 3.34375-15.328125 5.519532-3.019531 1.324218-6.609375-.085938-7.558594-3.242188-.820313-2.714844-.429687-6.339844 3.683594-10.445312-4.796875-1.4375-9.832031-2.652344-15.316407-3.4375-6.6875-.957032-13.453124 1.4375-18.226562 6.210937-4.078125 4.078125-6.367188 9.609375-6.367188 15.375v1.605469c0 9.21875-7.476562 16.695312-16.695312 16.695312h-4.027344c-4.292968 0-8.492187 1.273438-12.0625 3.652344l-6.695312 4.464844c-5.695313 3.796875-9.277344 10.015625-9.65625 16.851562-.226563 4.046876-.246094 9.003907.210937 14.511719 5.707031-3.136719 9.542969-2.339843 11.976563-.597656zm0 0" fill="#a9ba5a"/><path d="m379.875 239.445312c-5.441406 0-10.832031-.125-16.28125-.390624-2.660156-.132813-5.003906-1.800782-6-4.273438-2.03125-5.046875-3.953125-8.226562-5.53125-10.136719.210938 1.1875.539062 2.648438 1.019531 4.421875.585938 2.1875.054688 4.527344-1.425781 6.238282-1.472656 1.714843-3.679688 2.589843-5.960938 2.320312-4.824218-.558594-9.707031-1.292969-14.507812-2.171875-2.839844-.519531-5.042969-2.765625-5.511719-5.613281-1.21875-7.5-1.558593-14.007813-1-19.339844.046875-.449219-.140625-.699219-.191406-.757812l-1.09375-.140626c-1.359375 3.417969-2.28125 8.320313-1.695313 14.394532.222657 2.25-.691406 4.464844-2.433593 5.910156-1.746094 1.457031-4.097657 1.949219-6.265625 1.300781-9.871094-2.867187-18.980469-6.539062-27.078125-10.914062-1.828125-.984375-3.113281-2.757813-3.472657-4.8125-2.394531-13.453125-1.570312-29.1875 2.453126-46.773438.464843-2.042969-.632813-4.070312-2.566407-4.71875-1.433593-.480469-2.65625-.007812-3.234375.320313-.566406.328125-1.554687 1.085937-1.867187 2.566406-1.527344 7.355469-3.261719 18.820312-2.789063 31.609375.105469 2.785156-1.492187 5.351563-4.039062 6.484375-2.546875 1.140625-5.527344.605469-7.527344-1.332031-11.605469-11.238281-19.785156-24.921875-24.320312-40.660157-.578126-2.019531-.199219-4.199218 1.042968-5.898437 2.675782-3.695313 5.351563-7.0625 7.964844-10.046875-1.058594.285156-2.140625.847656-2.597656 1.101562-2.035156 1.113282-4.480469 1.113282-6.515625.027344-2.039063-1.09375-3.382813-3.140625-3.574219-5.449218-.429688-5.164063-.511719-10.363282-.230469-15.453126.492188-8.90625 5.230469-17.183593 12.6875-22.160156l6.691407-4.457031c4.714843-3.140625 10.195312-4.800781 15.855468-4.800781h4.023438c5.441406 0 9.867187-4.425782 9.867187-9.863282v-1.609374c0-7.519532 3.046875-14.886719 8.367188-20.199219 6.347656-6.347657 15.351562-9.339844 24.023437-8.144531 5.234375.746093 10.574219 1.941406 16.300782 3.652343 2.308593.6875 4.082031 2.539063 4.667968 4.867188.585938 2.335937-.09375 4.808593-1.800781 6.507812-.347656.347657-.921875.953125-1.359375 1.621094 4.152344-1.707031 8.78125-3.328125 13.785156-4.820313 1.808594-.554687 3.765625-.308593 5.398438.648438 10.0625 5.890625 18.78125 13.699219 25.925781 23.21875 1.402344 1.867188 1.753906 4.3125.933594 6.5-.816407 2.179688-2.691407 3.792969-4.972657 4.28125-13.867187 2.9375-19.566406 6.453125-21.546874 8.710938 10.703124-2.71875 22.082031-3.980469 29.996093-4.558594 2.824219-.234375 5.5 1.359375 6.691407 3.9375 4.960937 10.714844 8.632812 22.882812 10.925781 36.164062.453125 2.613282-.652344 5.246094-2.824219 6.765625-2.171875 1.507813-5.042969 1.625-7.328125.292969-9.472656-5.5-18.792969-9.105469-24.945313-11.160156-1.425781-.472656-2.589843-.007813-3.148437.316406-.578125.332031-1.59375 1.109375-1.914063 2.636719-.417968 1.988281.78125 3.960937 2.773438 4.589843 14.902344 4.671876 27.507812 10.785157 37.453125 18.179688 1.65625 1.226562 2.667969 3.132812 2.753906 5.191406.3125 7.347656.308594 14.792969-.007812 22.121094-.105469 2.464844-1.539063 4.6875-3.746094 5.800781-2.183594 1.117188-4.832031.953125-6.886719-.433593-5.105468-3.441407-9.886718-4.953126-12.992187-5.621094l-.953125 1.011718c.011718.335938.144531.621094.574218.796876 5.917969 2.410156 12.652344 6.710937 19.984376 12.765624 1.78125 1.472657 2.699218 3.746094 2.433593 6.039063-1.21875 10.6875-2.59375 17.425781-2.652343 17.714844-.632813 3.070312-3.289063 5.316406-6.425782 5.4375-4.515625.160156-8.964844.246093-13.378906.246093zm-11.398438-13.851562c6.234376.21875 12.425782.265625 18.765626.121094.320312-2.015625.699218-4.542969 1.082031-7.503906-5.066407-3.910157-9.714844-6.773438-13.582031-8.351563-3.800782-1.5625-6.785157-4.613281-8.199219-8.375-1.378907-3.671875-1.175781-7.640625.585937-11.152344l.375-.753906c2.894532-5.765625 9.3125-8.832031 15.640625-7.511719 2.019531.433594 4.539063 1.121094 7.363281 2.214844-.003906-2.28125-.039062-4.5625-.097656-6.835938-8.316406-5.652343-18.648437-10.4375-30.765625-14.238281-8.75-2.738281-13.929687-11.519531-12.054687-20.421875 1.03125-4.917968 4.128906-9.179687 8.480468-11.671875 4.332032-2.496093 9.535157-3.015625 14.265626-1.421875 3.835937 1.28125 8.785156 3.105469 14.273437 5.566406-1.390625-5.125-3.03125-10.003906-4.921875-14.597656-7.398438.710938-16.609375 2.011719-24.984375 4.347656-3.480469.976563-7.214844.410157-10.234375-1.535156-2.898438-1.878906-4.859375-4.898437-5.371094-8.296875-1.566406-10.175781 5.898438-17.960937 22.222656-23.203125-3.816406-3.851562-8.011718-7.253906-12.546874-10.160156-4.285157 1.367188-8.191407 2.828125-11.652344 4.339844-3.308594 1.457031-7.078125 1.429687-10.34375-.078125-3.140625-1.453125-5.507813-4.167969-6.496094-7.460938-.550781-1.847656-1.007812-4.6875-.160156-8.039062-1.984375-.421875-3.933594-.761719-5.894532-1.039063-4.476562-.648437-9.113281.957032-12.4375 4.28125-2.773437 2.773438-4.367187 6.617188-4.367187 10.546875v1.605469c0 12.964844-10.554687 23.519531-23.519531 23.519531h-4.027344c-2.953125 0-5.820312.867188-8.28125 2.507813l-6.691406 4.457031c-3.894532 2.601563-6.375 6.921875-6.636719 11.554687-.09375 1.71875-.136719 3.453126-.136719 5.199219 4.445313-.277343 7.613282 1.441407 9.492188 2.78125 0 .007813.003906.007813.003906.015625 2.789062 1.992188 4.59375 5.105469 4.953125 8.539063.375 3.566406-.816406 7.148437-3.265625 9.820312-2.152344 2.351563-4.386719 5.039063-6.652344 8.019531 2.152344 6.5 5.066406 12.566407 8.710938 18.144532.621094-6.472656 1.589844-12.105469 2.488281-16.445313 1.027344-4.894531 4.097656-9.128906 8.433594-11.613281 4.351562-2.5 9.578125-3.019531 14.359375-1.425781 8.632812 2.878906 13.601562 11.785156 11.546875 20.710937-3.933594 17.214844-3.847657 29.832032-2.8125 38.082032 3.988281 1.984374 8.226562 3.800781 12.699219 5.425781.347656-3.679688 1.03125-6.761719 1.699218-9.066407 1.808594-6.21875 7.433594-10.285156 14.019532-10.238281l.855468.03125c3.90625.105469 7.5 1.800781 10.085938 4.753907 2.652344 3.027343 3.925781 7.101562 3.507812 11.175781-.207031 1.933593-.25 4.117187-.128906 6.546875.300781-2.441406 1.089844-4.421875 2.355469-6.082032 1.933593-2.519531 4.828125-3.90625 8.140625-3.90625 7.816406-.003906 14.480468 5.75 19.855468 17.117188zm0 0" fill="#4c241d"/><path d="m158.164062 209.160156-.121093-.121094c-6.78125-6.78125-16.421875-9.871093-25.882813-8.292968l-19.828125 3.300781c-2.859375.480469-5.269531-2.132813-4.566406-4.949219 3.167969-12.679687-2.324219-25.941406-13.535156-32.667968-10.527344-6.316407-24.046875-5.710938-33.578125 2.035156-16.992188 13.808594-24.164063 32.140625-26.265625 50.246094h26.472656c2.730469 0 5.226563 1.542968 6.445313 3.988281 2.238281 4.472656-.617188 9.792969-5.585938 10.371093-8.148438.945313-19.382812 3.203126-27.597656 8.371094 2.03125 25.226563 10.714844 45.539063 10.714844 45.539063 19.796874 2.640625 36.785156 1.953125 51.316406-.855469 6.222656-24.195312 18.960937-66.976562 23.777344-33.28125 1.335937 9.367188-.5 18.726562-4.273438 27.734375 21.054688-7.957031 35.355469-20.492187 44.539062-31.625 9.707032-11.769531 8.757813-29.003906-2.03125-39.792969zm0 0" fill="#a9ba5a"/><path d="m68.84375 295.453125c-8.046875 0-16.363281-.566406-24.910156-1.707031-2.382813-.320313-4.433594-1.867188-5.378906-4.085938-.367188-.867187-9.136719-21.628906-11.238282-47.675781-.199218-2.53125 1.019532-4.972656 3.171875-6.328125 9.425781-5.925781 21.761719-8.363281 30.453125-9.363281l-.078125-.753907h-26.472656c-1.949219 0-3.800781-.832031-5.101563-2.285156-1.292968-1.457031-1.90625-3.394531-1.679687-5.328125 2.667969-23.007812 12.339844-41.433593 28.742187-54.761719 11.621094-9.445312 28.253907-10.480468 41.398438-2.585937 12.675781 7.605469 19.347656 21.726563 17.421875 36.074219l15.875-2.640625c11.628906-1.941407 23.511719 1.875 31.824219 10.199219l.121094.121093c13.390624 13.394531 14.453124 34.441407 2.472656 48.964844-12.359375 14.972656-28.75 26.613281-47.394532 33.667969-2.539062.953125-5.421874.320312-7.328124-1.644532-1.890626-1.960937-2.441407-4.863281-1.378907-7.382812 3.539063-8.453125 4.832031-16.464844 3.851563-23.8125-2.59375 6.335938-6.148438 16.964844-10.453125 33.699219-.660157 2.554687-2.726563 4.5-5.320313 5-9.050781 1.753906-18.617187 2.628906-28.597656 2.628906zm-19.113281-14.753906c14.550781 1.628906 28.285156 1.441406 40.917969-.539063 11.566406-43.625 18.128906-46.945312 24.570312-46.574218 8.925781.496093 10.644531 12.515624 11.472656 18.296874.746094 5.25.652344 10.6875-.28125 16.246094 13.433594-7.378906 22.703125-16.460937 28.519532-23.519531 7.480468-9.066406 6.792968-22.234375-1.59375-30.621094l-.117188-.117187c-5.214844-5.214844-12.675781-7.585938-19.929688-6.386719l-19.832031 3.300781c-3.589843.601563-7.253906-.640625-9.753906-3.332031-2.492187-2.695313-3.453125-6.433594-2.566406-9.992187 2.46875-9.84375-1.71875-19.953126-10.414063-25.167969-8.230468-4.933594-18.585937-4.355469-25.757812 1.472656-11.714844 9.519531-19.289063 22.320313-22.570313 38.125h18.46875c5.351563 0 10.164063 2.976563 12.550781 7.769531 2.046876 4.09375 1.964844 8.9375-.199218 12.953125-2.171875 4.007813-6.167969 6.722657-10.699219 7.246094-8.328125.960937-15.667969 2.855469-21.160156 5.421875 1.808593 15.84375 6.140625 29.273438 8.375 35.417969zm61.488281-83.386719c-.007812 0-.007812 0-.007812 0zm0 0" fill="#4c241d"/><path d="m201.847656 420.097656c-39.585937 0-71.679687-32.089844-71.679687-71.679687v-44.371094h143.363281v44.371094c0 39.589843-32.09375 71.679687-71.683594 71.679687zm0 0" fill="#fff"/><path d="m201.847656 426.925781c-43.285156 0-78.503906-35.21875-78.503906-78.507812v-44.371094c0-3.773437 3.050781-6.828125 6.824219-6.828125h143.363281c3.773438 0 6.824219 3.054688 6.824219 6.828125v44.371094c0 43.289062-35.21875 78.507812-78.507813 78.507812zm-64.851562-116.054687v37.546875c0 35.761719 29.09375 64.855469 64.851562 64.855469 35.761719 0 64.855469-29.09375 64.855469-64.855469v-37.546875zm0 0" fill="#4c241d"/><path d="m201.847656 399.617188c-3.773437 0-6.824218-3.050782-6.824218-6.824219 0-3.773438 3.050781-6.828125 6.824218-6.828125 3.742188 0 7.441406-.460938 10.996094-1.371094 3.613281-.933594 7.363281 1.257812 8.304688 4.917969.933593 3.648437-1.265626 7.367187-4.921876 8.308593-4.652343 1.191407-9.492187 1.796876-14.378906 1.796876zm0 0" fill="#4c241d"/><path d="m236.285156 386.3125c-1.855468 0-3.703125-.753906-5.054687-2.234375-2.535157-2.785156-2.328125-7.105469.460937-9.644531 4.746094-4.3125 8.566406-9.703125 11.046875-15.566406 1.464844-3.480469 5.472657-5.101563 8.9375-3.636719 3.476563 1.46875 5.101563 5.46875 3.636719 8.941406-3.242188 7.679687-8.234375 14.71875-14.433594 20.367187-1.308594 1.1875-2.957031 1.773438-4.59375 1.773438zm0 0" fill="#4c241d"/></svg>